<svg width="128" height="128" viewBox="0 0 128 128" xmlns="http://www.w3.org/2000/svg">
  <defs>
    <linearGradient id="grad" x1="0%" y1="0%" x2="100%" y2="100%">
      <stop offset="0%" style="stop-color:#0066cc;stop-opacity:1" />
      <stop offset="100%" style="stop-color:#4d9fff;stop-opacity:1" />
    </linearGradient>
  </defs>

  <!-- Background -->
  <rect width="128" height="128" rx="24" fill="url(#grad)"/>

  <!-- Extension icon representation -->
  <g transform="translate(24, 24)">
    <!-- Puzzle piece shape representing extension -->
    <path d="M10 10 L50 10 L50 20 Q60 20 60 30 Q60 40 50 40 L50 70 L20 70 Q20 60 30 60 Q40 60 40 50 Q40 40 30 40 Q20 40 20 50 L20 70 L10 70 Z"
          fill="white" opacity="0.9"/>

    <!-- AI sparkle -->
    <circle cx="65" cy="15" r="3" fill="white"/>
    <circle cx="70" cy="25" r="2" fill="white" opacity="0.7"/>
    <circle cx="60" cy="20" r="2" fill="white" opacity="0.7"/>
  </g>

  <!-- Text -->
  <text x="64" y="100" font-family="Arial, sans-serif" font-size="18" font-weight="bold"
        text-anchor="middle" fill="white">CRX</text>
</svg>
